<?xml version="1.0" standalone="no"?><!DOCTYPE svg PUBLIC "-//W3C//DTD SVG 1.1//EN" "http://www.w3.org/Graphics/SVG/1.1/DTD/svg11.dtd"><svg t="1689454555756" class="icon" viewBox="0 0 1024 1024" version="1.1" xmlns="http://www.w3.org/2000/svg" p-id="3708" xmlns:xlink="http://www.w3.org/1999/xlink" width="128" height="128"><path d="M768 615.208421a110.618947 110.618947 0 1 0 110.753684 110.618947A110.753684 110.753684 0 0 0 768 615.208421z m0 68.446316a42.172632 42.172632 0 1 1-42.037895 42.172631A42.172632 42.172632 0 0 1 768 683.654737z" fill="#333333" p-id="3709"></path><path d="M1003.789474 741.995789a16.976842 16.976842 0 0 1 0-32.471578 36.109474 36.109474 0 0 0 19.671579-40.421053 256 256 0 0 0-34.762106-83.941053 35.974737 35.974737 0 0 0-42.711579-14.551579 18.593684 18.593684 0 0 1-19.671579-2.96421 19.402105 19.402105 0 0 1-2.425263-19.267369 35.974737 35.974737 0 0 0-14.551579-42.711579 256 256 0 0 0-83.941052-34.762105 35.974737 35.974737 0 0 0-40.421053 19.671579 17.381053 17.381053 0 0 1-32.471579 0 36.109474 36.109474 0 0 0-40.421052-19.671579 256 256 0 0 0-83.941053 34.762105 36.244211 36.244211 0 0 0-14.686316 42.711579 18.863158 18.863158 0 0 1-2.290526 19.132632l-0.673684 0.808421a18.863158 18.863158 0 0 1-19.671579 2.829474 36.109474 36.109474 0 0 0-42.846316 14.551579A259.503158 259.503158 0 0 0 512 669.103158a36.378947 36.378947 0 0 0 19.671579 40.421053 16.842105 16.842105 0 0 1 0 32.471578 36.513684 36.513684 0 0 0-19.671579 40.421053 257.616842 257.616842 0 0 0 34.762105 83.806316 36.378947 36.378947 0 0 0 42.846316 14.686316 16.842105 16.842105 0 0 1 22.63579 22.770526 36.244211 36.244211 0 0 0 14.686315 42.711579 258.290526 258.290526 0 0 0 83.941053 34.762105 38.534737 38.534737 0 0 0 7.814737 0.808421 36.244211 36.244211 0 0 0 32.606316-20.48 17.246316 17.246316 0 0 1 32.471579 0 37.187368 37.187368 0 0 0 40.421052 19.671579 259.503158 259.503158 0 0 0 83.941053-34.762105 36.109474 36.109474 0 0 0 14.551579-42.846316 16.842105 16.842105 0 0 1 22.770526-22.635789 35.974737 35.974737 0 0 0 42.711579-14.686316A254.113684 254.113684 0 0 0 1024 782.551579a36.244211 36.244211 0 0 0-20.210526-40.55579zM848.842105 896.673684a186.341053 186.341053 0 0 1-17.650526 7.27579 87.848421 87.848421 0 0 0-126.922105 0c-5.928421-2.155789-11.856842-4.581053-17.51579-7.27579a88.252632 88.252632 0 0 0-25.734737-64 87.04 87.04 0 0 0-64.134736-25.734737c-2.694737-5.793684-5.12-11.722105-7.27579-17.650526a87.848421 87.848421 0 0 0 0-126.922105c2.155789-6.063158 4.581053-11.856842 7.27579-17.650527h1.482105A87.848421 87.848421 0 0 0 687.157895 554.846316c5.793684-2.694737 11.722105-5.12 17.650526-7.27579a87.578947 87.578947 0 0 0 126.922105 0 168.555789 168.555789 0 0 1 17.650527 7.410527 87.174737 87.174737 0 0 0 25.734736 63.865263 84.075789 84.075789 0 0 0 64.134737 25.869473c2.694737 5.793684 5.12 11.587368 7.27579 17.650527a87.578947 87.578947 0 0 0 0 126.922105c-2.155789 5.928421-4.581053 11.856842-7.27579 17.650526a89.330526 89.330526 0 0 0-64 25.6A88.387368 88.387368 0 0 0 848.842105 896.673684z" fill="#333333" p-id="3710"></path><path d="M412.833684 978.458947H168.555789A169.094737 169.094737 0 0 1 0 809.903158V207.764211A169.094737 169.094737 0 0 1 168.555789 39.208421h683.385264a169.094737 169.094737 0 0 1 168.555789 168.55579v137.566315a38.938947 38.938947 0 1 1-77.743158 0V207.764211a91.082105 91.082105 0 0 0-90.812631-90.812632H168.555789a91.082105 91.082105 0 0 0-90.812631 90.812632v602.138947a91.082105 91.082105 0 0 0 90.812631 90.812631h244.277895a38.938947 38.938947 0 1 1 0 77.743158z" fill="#333333" p-id="3711"></path><path d="M775.545263 219.351579H252.496842a40.421053 40.421053 0 0 0-40.421053 40.421053v141.608421a40.421053 40.421053 0 0 0 40.421053 40.421052h523.048421a40.421053 40.421053 0 0 0 40.421053-40.421052V260.311579a40.421053 40.421053 0 0 0-40.421053-40.96z m-370.661052 148.210526l-18.324211 10.913684-23.848421-35.570526-24.117895 35.570526-18.32421-10.913684L350.315789 335.629474l-42.711578-7.27579 6.871578-18.458947 40.421053 13.473684-3.907368-40.421053h23.04l-3.907369 40.421053 40.421053-13.473684 7.141053 18.32421-42.442106 7.27579z m151.44421 0l-18.32421 10.913684-23.848422-35.570526-24.117894 35.570526L471.578947 367.831579l29.507369-32.336842-42.981053-7.141053 7.814737-18.458947 40.421053 13.473684-3.772632-40.421053H525.473684l-4.042105 40.421053 40.421053-13.473684 7.006315 17.92-42.442105 7.141052z m151.444211 0l-18.324211 10.913684-23.848421-35.301052-24.117895 35.570526-18.32421-10.913684 29.507368-32.336842-42.711579-7.141053 7.410527-18.458947 40.421052 13.473684-3.907368-40.421053h23.04L673.684211 323.368421l40.421052-13.473684 7.006316 17.92-42.442105 7.141052z" fill="#333333" p-id="3712"></path></svg>