<?xml version="1.0" standalone="no"?><!DOCTYPE svg PUBLIC "-//W3C//DTD SVG 1.1//EN" "http://www.w3.org/Graphics/SVG/1.1/DTD/svg11.dtd"><svg t="1689605694528" class="icon" viewBox="0 0 1024 1024" version="1.1" xmlns="http://www.w3.org/2000/svg" p-id="2397" xmlns:xlink="http://www.w3.org/1999/xlink" width="128" height="128"><path d="M510.786591 1024c-16.383873 0-32.255751-3.118521-47.429452-9.122839L269.589909 910.429968C160.720932 851.550423 93.090909 736.9564 93.090909 611.331189V289.983854c0-60.229353 39.19097-113.337306 95.74326-130.465901l91.833472-45.753828c11.077733-5.445776 21.876195-11.310458 32.488477-17.500956L434.964631 25.188809c43.798934-33.931374 110.218785-33.977919 157.741327 2.46689l118.177995 68.654015c10.658827 6.190498 21.410744 12.05518 32.441932 17.500956l91.880017 45.707283C891.711647 176.646548 930.902617 229.754501 930.902617 289.983854a34.908821 34.908821 0 0 1-69.817642 0c0-30.068131-19.64203-56.412655-47.848358-64.092596l-6.376678-2.46689-94.672723-47.150181a613.464351 613.464351 0 0 1-36.537899-19.688575L553.840803 85.511252c-26.530704-20.014391-57.203922-19.921301-80.057563-2.46689l-125.439031 73.54125c-11.962089 6.981764-24.156904 13.544623-36.537899 19.688575L210.756909 225.844713A66.04749 66.04749 0 0 0 162.908551 289.983854v321.39388c0 99.932319 53.619949 190.974524 139.914556 237.659254l189.997077 102.725025c11.077733 4.095968 27.275426 4.049423 42.123311-1.768714l186.273469-100.956311c86.294606-46.68473 139.86801-137.726936 139.868011-237.659254V441.767408a34.908821 34.908821 0 0 1 69.817642 0v169.563781c0 125.578666-67.630023 240.17269-176.499 299.052234l-190.043622 102.725025A141.962539 141.962539 0 0 1 510.786591 1024z" p-id="2398" fill="#515151"></path><path d="M477.553393 672.491443a94.160727 94.160727 0 0 1-67.304207-29.649225l-100.071954-104.214467a34.955366 34.955366 0 0 1 50.361792-48.406899l100.071954 104.214467c4.93378 5.11996 11.263913 8.191937 16.942415 8.191937 4.93378 0 7.074854-2.234165 7.773031-2.978886l227.698604-237.054168a34.955366 34.955366 0 0 1 50.361792 48.406898l-227.745149 237.054169a79.778293 79.778293 0 0 1-58.088278 24.436174z" p-id="2399" fill="#515151"></path></svg>