<?xml version="1.0" standalone="no"?><!DOCTYPE svg PUBLIC "-//W3C//DTD SVG 1.1//EN" "http://www.w3.org/Graphics/SVG/1.1/DTD/svg11.dtd"><svg t="1689616292210" class="icon" viewBox="0 0 1522 1024" version="1.1" xmlns="http://www.w3.org/2000/svg" p-id="2734" xmlns:xlink="http://www.w3.org/1999/xlink" width="190.25" height="128"><path d="M511.971442 1024a511.971442 511.971442 0 1 1 498.772177-628.044967 31.998215 31.998215 0 1 1-62.316523 14.479192A447.975011 447.975011 0 1 0 511.971442 960.00357a31.998215 31.998215 0 0 1 0 63.99643z" fill="#515151" p-id="2735"></path><path d="M503.971888 136.049531a31.998215 31.998215 0 0 1-31.998215-31.998215V32.055332a31.998215 31.998215 0 0 1 63.99643 0v71.995984a31.998215 31.998215 0 0 1-31.998215 31.998215zM519.970995 1024a31.998215 31.998215 0 0 1-31.998215-31.998215v-71.995984a31.998215 31.998215 0 0 1 63.99643 0v71.995984a31.998215 31.998215 0 0 1-31.998215 31.998215zM217.827849 261.162552a31.998215 31.998215 0 0 1-22.638737-9.359478L143.991968 200.925912a31.998215 31.998215 0 0 1 45.277474-45.277474l50.877162 50.877162a31.998215 31.998215 0 0 1-22.638737 54.636952zM103.994199 552.026327H31.998215a31.998215 31.998215 0 0 1 0-63.99643h71.995984a31.998215 31.998215 0 0 1 0 63.99643zM178.230058 889.047528a31.998215 31.998215 0 0 1-22.638737-54.636952l50.877162-50.877162a31.998215 31.998215 0 0 1 45.277474 45.277474l-50.877162 51.197144a31.998215 31.998215 0 0 1-22.638737 9.039496zM794.835663 249.883181a31.998215 31.998215 0 0 1-22.638737-54.636952l50.877162-51.197144a31.998215 31.998215 0 0 1 45.277474 45.277474l-50.877162 50.877162a31.998215 31.998215 0 0 1-22.638737 9.67946z" fill="#515151" p-id="2736"></path><path d="M679.08212 395.075082a82.795382 82.795382 0 1 1-75.83577-75.83577 82.795382 82.795382 0 0 1 75.83577 75.83577z" fill="#515151" p-id="2737"></path><path d="M442.055342 654.900589a155.031352 155.031352 0 0 1 301.34319-62.156533 151.991522 151.991522 0 0 1 7.999554 37.037934 158.711147 158.711147 0 0 1 0 23.998661z" fill="#515151" p-id="2738"></path><path d="M516.451192 516.588304h-9.119492a115.193574 115.193574 0 1 1 9.119492 0z m0-165.590763a50.797166 50.797166 0 0 0-50.637176 55.03693 50.957158 50.957158 0 0 0 46.157426 46.397412 50.797166 50.797166 0 0 0 54.876938-54.876939 50.957158 50.957158 0 0 0-46.477407-46.477408z" fill="#515151" p-id="2739"></path><path d="M362.059804 686.898804a31.998215 31.998215 0 0 1-31.998215-29.518354 187.029567 187.029567 0 0 1 363.579719-74.955818 183.989737 183.989737 0 0 1 9.199487 44.797501 191.349326 191.349326 0 0 1 0 28.958384 31.998215 31.998215 0 0 1-63.996431-4.639741 126.952918 126.952918 0 0 0 0-19.198929 119.993307 119.993307 0 0 0-5.999665-29.278367A124.473057 124.473057 0 0 0 526.610625 520.028112a123.033137 123.033137 0 0 0-129.112798 91.274909 124.313066 124.313066 0 0 0-3.519804 41.117706 31.998215 31.998215 0 0 1-29.358362 34.398081zM985.945003 1000.001339h-223.987506V752.015172h223.987506z m-159.991076-63.996431h95.994646v-119.993306h-95.994646zM1253.930054 1000.001339h-223.987505V456.031682h223.987505z m-159.991075-63.996431h95.994645V520.028112h-95.994645zM1521.915106 1000.001339h-223.987506V616.022757h223.987506z m-159.991076-63.996431h95.994645V680.019188h-95.994645z" fill="#515151" p-id="2740"></path></svg>