<?xml version="1.0" standalone="no"?><!DOCTYPE svg PUBLIC "-//W3C//DTD SVG 1.1//EN" "http://www.w3.org/Graphics/SVG/1.1/DTD/svg11.dtd"><svg t="1688730552551" class="icon" viewBox="0 0 1027 1024" version="1.1" xmlns="http://www.w3.org/2000/svg" p-id="2394" xmlns:xlink="http://www.w3.org/1999/xlink" width="128.375" height="128"><path d="M146.688 238.336H110.08c-58.624 0-110.08 44.032-110.08 110.08v513.792c0 80.64 66.048 146.688 146.688 146.688 80.64 0 146.688-66.048 146.688-146.688V128.256c0-22.016 14.592-36.608 36.608-36.608H917.504c22.016 0 36.608 14.592 36.608 36.608v733.952c0 22.016-14.592 36.608-36.608 36.608H403.712c-22.016 0-36.608 14.592-36.608 36.608 0 22.016 14.592 36.608 36.608 36.608H917.504c58.624 0 110.08-51.456 110.08-110.08V128.256c0-58.624-51.456-110.08-110.08-110.08H330.24c-58.624 0-110.08 51.456-110.08 110.08v733.952c0 44.032-29.44 73.472-73.472 73.472S73.216 906.24 73.216 862.208V348.416c0-22.016 14.592-36.608 36.608-36.608h36.608c22.016 0 36.608-14.592 36.608-36.608 0.512-22.016-14.336-36.864-36.352-36.864z m0 0" fill="#515151" p-id="2395"></path><path d="M403.712 238.336h220.16c22.016 0 36.608 14.592 36.608 36.608 0 22.016-14.592 36.608-36.608 36.608h-220.16c-22.016 0-36.608-14.592-36.608-36.608-0.256-21.76 14.592-36.608 36.608-36.608z m0 220.16h440.32c22.016 0 36.608 14.592 36.608 36.608 0 22.016-14.592 36.608-36.608 36.608h-440.32c-22.016 0-36.608-14.592-36.608-36.608-0.256-21.76 14.592-36.608 36.608-36.608z m0 220.416h440.32c22.016 0 36.608 14.592 36.608 36.608 0 22.016-14.592 36.608-36.608 36.608h-440.32c-22.016 0-36.608-14.592-36.608-36.608-0.256-22.016 14.592-36.608 36.608-36.608z m0 0" fill="#515151" p-id="2396"></path></svg>