<?xml version="1.0" standalone="no"?><!DOCTYPE svg PUBLIC "-//W3C//DTD SVG 1.1//EN" "http://www.w3.org/Graphics/SVG/1.1/DTD/svg11.dtd"><svg t="1688730737404" class="icon" viewBox="0 0 1024 1024" version="1.1" xmlns="http://www.w3.org/2000/svg" p-id="4797" xmlns:xlink="http://www.w3.org/1999/xlink" width="128" height="128"><path d="M507.199613 1.333552h11.463149c44.228142 28.668369 87.080746 60.727599 129.357544 92.022086C753.196973 171.206485 857.537921 252.057324 964.04814 331.22173c20.553095 15.277868 44.582023 27.528752 58.948197 50.351085v26.045251c-9.892677 39.093867-58.122474 33.66769-78.596596 8.681084V865.989082c0 53.595995 13.509462 149.573753-27.837649 158.000921h-21.286849c-38.632022-6.327874-26.199199-108.872426-26.199198-161.471755V445.816234c0-28.824317 5.154268-65.804894 0-83.340003-2.852042-9.693744-30.697687-27.497762-42.574698-36.461751-106.696157-80.514952-206.746546-151.346157-311.115484-230.922425-118.261272 84.686551-233.712487 172.364096-348.775834 260.438509v501.776434c0 52.131487 13.27554 158.040908-26.199198 166.680006h-22.924299c-39.296799-9.415837-26.199199-109.607179-26.199199-163.208172V412.824317c-14.649079 3.498825-27.977601 26.96894-50.760947 26.04525-18.294854-0.74275-28.356474-13.594433-36.023899-31.253501v-24.308833c14.026288-22.956288 38.31113-34.970252 58.946198-50.352085C189.830229 238.762791 313.95653 145.024281 441.699617 49.946221c20.74903-15.437814 48.623665-42.099857 65.499996-48.612669z" fill="#515151" p-id="4798"></path><path d="M382.753419 404.146232c9.244894 16.802355 6.5488 46.558359 6.5488 76.393337 0 24.02293 5.122279 61.013503-6.5488 74.659919-12.329858 14.416157-48.04586 8.682083-70.409347 8.682083-28.055575 0-55.801254 2.682099-72.047797-6.945667-9.875682-15.893661-6.5488-44.332107-6.5488-72.922502 0-38.307131-8.825035-82.767195 22.924299-86.812837 34.514405-4.399522 98.703842-1.36954 126.081645 6.945667zM382.753419 767.024328c-15.035949 10.309537-43.584358 6.944667-72.047797 6.944667-23.658052 0-59.808908 4.297556-70.410346-6.944667-13.232555-14.032286-6.5498-55.21845-6.5498-74.660919 0-16.644409-6.006982-62.870879 4.91335-76.396335 12.040955-14.91299 53.717954-8.681084 85.146396-8.681084 19.701382 0 49.387409-2.26224 58.948197 8.681084 10.521465 12.039955 6.5488 50.352085 6.5488 76.396335 0 30.058902 2.913021 55.698289-6.5488 74.660919zM471.175714 609.023406c21.948627-3.031981 106.74614-9.471818 121.169295 6.945667 10.374515 11.808033 6.5498 46.852261 6.550799 76.395336 0 24.506767 4.85237 62.12613-6.550799 74.661918-10.869349 11.950985-53.280101 6.944667-72.045797 6.944667-16.770366 0-59.575986 4.359535-70.410347-6.944667-9.750724-10.175582-6.5498-44.781956-6.549799-74.661918 0-27.219856-5.826043-62.913865 4.913349-76.395336 5.481159-6.880689 16.528447-6.061964 22.923299-6.945667zM382.753419 826.055497c9.238896 16.740376 6.5488 46.58635 6.5488 76.395336 0 23.956952 5.143272 61.098475-6.5488 74.661918-12.347852 14.31919-48.146826 8.680084-70.409347 8.680084-28.075568 0-55.590325 2.489164-72.047797-6.944667-9.875682-15.892661-6.5488-44.332107-6.5488-72.921503 0-38.241153-8.875019-82.760198 22.924299-86.813836 34.401443-4.387526 98.865787-1.462509 126.081645 6.942668zM449.888865 978.847169c-10.204572-17.693056-6.5498-47.832931-6.549799-72.921503 0-34.413439-9.156924-82.72421 22.925298-86.813836 20.868989-2.659107 113.025031-7.410511 126.081645 6.944667 13.3945 14.723054 6.550799 53.392064 6.550799 76.396335 0 22.95129 3.414853 63.317729-6.550799 74.660919-12.122927 13.800364-48.594675 8.681084-70.410347 8.681084-25.39247-0.003999-53.004194 2.933015-72.046797-6.947666zM659.481455 978.847169c-10.255555-19.862327-6.5488-48.059855-6.5488-72.921503 0-34.593379-9.16692-82.72321 22.924299-86.813836 21.285849-2.713089 112.383246-7.582453 126.083644 6.944667 11.147255 11.820029 6.5498 54.35674 6.5498 74.660918 0 19.024609 5.117281 63.868544-4.91335 76.396336-9.985645 12.468811-47.433065 8.681084-72.046796 8.681084-29.266168-0.003999-55.502355 2.44218-72.048797-6.947666z" fill="#515151" p-id="4799"></path></svg>