<?xml version="1.0" standalone="no"?><!DOCTYPE svg PUBLIC "-//W3C//DTD SVG 1.1//EN" "http://www.w3.org/Graphics/SVG/1.1/DTD/svg11.dtd"><svg t="1688555316788" class="icon" viewBox="0 0 1024 1024" version="1.1" xmlns="http://www.w3.org/2000/svg" p-id="3979" xmlns:xlink="http://www.w3.org/1999/xlink" width="128" height="128"><path d="M374.4 64.7H167.9c-56.8 0-103.2 46.5-103.2 103.2v206.5c0 56.8 46.5 103.2 103.2 103.2h206.5c56.8 0 103.2-46.5 103.2-103.2V167.9c0-56.8-46.5-103.2-103.2-103.2z m34.4 309.7c0 18.7-15.8 34.4-34.4 34.4H167.9c-18.7 0-34.4-15.8-34.4-34.4V167.9c0-18.7 15.8-34.4 34.4-34.4h206.5c18.7 0 34.4 15.8 34.4 34.4v206.5zM856.1 64.7H649.6c-56.8 0-103.2 46.5-103.2 103.2v206.5c0 56.8 46.5 103.2 103.2 103.2h206.5c56.8 0 103.2-46.5 103.2-103.2V167.9c0-56.8-46.4-103.2-103.2-103.2z m34.4 309.7c0 18.7-15.8 34.4-34.4 34.4H649.6c-18.7 0-34.4-15.8-34.4-34.4V167.9c0-18.7 15.8-34.4 34.4-34.4h206.5c18.7 0 34.4 15.8 34.4 34.4v206.5zM374.4 546.4H167.9c-56.8 0-103.2 46.5-103.2 103.2v206.5c0 56.8 46.5 103.2 103.2 103.2h206.5c56.8 0 103.2-46.5 103.2-103.2V649.6c0-56.7-46.5-103.2-103.2-103.2z m34.4 309.7c0 18.7-15.8 34.4-34.4 34.4H167.9c-18.7 0-34.4-15.8-34.4-34.4V649.6c0-18.7 15.8-34.4 34.4-34.4h206.5c18.7 0 34.4 15.8 34.4 34.4v206.5zM856.1 546.4H649.6c-56.8 0-103.2 46.5-103.2 103.2v206.5c0 56.8 46.5 103.2 103.2 103.2h137.6c19 0 34.4-15.4 34.4-34.4s-15.4-34.4-34.4-34.4H649.6c-18.9 0-34.4-15.5-34.4-34.4V649.6c0-18.9 15.5-34.4 34.4-34.4h206.5c18.9 0 34.4 15.5 34.4 34.4v137.6c0 19 15.4 34.4 34.4 34.4s34.4-15.4 34.4-34.4V649.6c0-56.7-46.4-103.2-103.2-103.2z" p-id="3980" fill="#515151"></path></svg>