<?xml version="1.0" standalone="no"?><!DOCTYPE svg PUBLIC "-//W3C//DTD SVG 1.1//EN" "http://www.w3.org/Graphics/SVG/1.1/DTD/svg11.dtd"><svg t="1688550758387" class="icon" viewBox="0 0 1024 1024" version="1.1" xmlns="http://www.w3.org/2000/svg" p-id="2561" xmlns:xlink="http://www.w3.org/1999/xlink" width="128" height="128"><path d="M528 64c42.08 0 81.792 10.144 116.8 28.16l8.32 4.448a255.936 255.936 0 0 1 130.816 218.368L784 320v31.968l64 0.032a32 32 0 0 1 31.776 28.256L880 384v512a32 32 0 0 1-32 32H192a32 32 0 0 1-32-32V384a32 32 0 0 1 32-32l80-0.032V320a255.936 255.936 0 0 1 130.88-223.392l8.32-4.48A254.912 254.912 0 0 1 528 64z m288 352l-32-0.032V416h-64v-0.032h-384V416h-64v-0.032L224 416v448h592V416z m-287.808 64l3.52 0.064c49.888 1.952 90.368 43.584 92.224 94.016a98.464 98.464 0 0 1-36.256 80.384l-3.296 2.56c-14.4 10.656-23.232 26.56-24.288 43.552L560 704h-64c0-38.88 18.88-75.168 50.304-98.432 8.864-6.56 14.08-17.312 13.664-29.12-0.64-17.344-14.688-31.808-30.72-32.416-17.216-0.672-31.904 13.12-33.152 31.296l-0.096 2.496h-64c0-54.048 43.04-97.92 96.192-97.824zM528 128a192 192 0 0 0-191.936 187.136L336 320v31.968h384V320a192 192 0 0 0-192-192z" fill="#f85805" p-id="2562"></path><path d="M496 736h64v64h-64z" fill="#f85805" p-id="2563"></path></svg>