<?xml version="1.0" standalone="no"?><!DOCTYPE svg PUBLIC "-//W3C//DTD SVG 1.1//EN" "http://www.w3.org/Graphics/SVG/1.1/DTD/svg11.dtd"><svg t="1689616328644" class="icon" viewBox="0 0 1024 1024" version="1.1" xmlns="http://www.w3.org/2000/svg" p-id="2938" xmlns:xlink="http://www.w3.org/1999/xlink" width="128" height="128"><path d="M153.6 204.8h512v102.4H153.6z" p-id="2939" fill="#515151"></path><path d="M102.4 716.8V153.6c0-30.72 20.48-51.2 51.2-51.2h512c30.72 0 51.2 20.48 51.2 51.2v204.8h102.4V153.6c0-87.04-66.56-153.6-153.6-153.6H153.6C66.56 0 0 66.56 0 153.6v563.2c0 87.04 66.56 153.6 153.6 153.6h204.8v-102.4H153.6c-30.72 0-51.2-20.48-51.2-51.2z" p-id="2940" fill="#515151"></path><path d="M153.6 409.6h307.2v102.4H153.6zM742.4 460.8c-153.6 0-281.6 128-281.6 281.6s128 281.6 281.6 281.6 281.6-128 281.6-281.6S896 460.8 742.4 460.8z m0 460.8c-97.28 0-179.2-81.92-179.2-179.2s81.92-179.2 179.2-179.2 179.2 81.92 179.2 179.2-81.92 179.2-179.2 179.2z" p-id="2941" fill="#515151"></path><path d="M890.88 619.52l-92.16 87.04-71.68-76.8-56.32 56.32-102.4 102.4c5.12 25.6 20.48 46.08 35.84 66.56l117.76-117.76 71.68 76.8 20.48-20.48 107.52-102.4c-5.12-25.6-15.36-51.2-30.72-71.68z" p-id="2942" fill="#515151"></path></svg>