<?xml version="1.0" standalone="no"?><!DOCTYPE svg PUBLIC "-//W3C//DTD SVG 1.1//EN" "http://www.w3.org/Graphics/SVG/1.1/DTD/svg11.dtd"><svg t="1689616250889" class="icon" viewBox="0 0 1024 1024" version="1.1" xmlns="http://www.w3.org/2000/svg" p-id="2582" xmlns:xlink="http://www.w3.org/1999/xlink" width="128" height="128"><path d="M806.4 657.92h-158.72V409.6c0-10.24-10.24-17.92-23.04-17.92h-5.12c-12.8 0-23.04 7.68-23.04 17.92v248.32h-64V232.96c0-12.8-10.24-25.6-23.04-25.6h-5.12c-12.8 0-23.04 10.24-23.04 25.6v424.96h-61.44V348.16c0-12.8-10.24-20.48-23.04-20.48h-5.12c-12.8 0-23.04 10.24-23.04 20.48v312.32H217.6c-12.8 0-25.6 10.24-25.6 23.04v5.12c0 12.8 10.24 23.04 25.6 23.04h588.8c12.8 0 25.6-10.24 25.6-23.04v-5.12c0-12.8-10.24-25.6-25.6-25.6z" fill="#B5B5B5" p-id="2583"></path><path d="M512 69.12c245.76 0 442.88 199.68 442.88 442.88 0 245.76-199.68 442.88-442.88 442.88-245.76 0-442.88-199.68-442.88-442.88 0-245.76 197.12-442.88 442.88-442.88zM512 0C230.4 0 0 230.4 0 512s230.4 512 512 512 512-230.4 512-512S793.6 0 512 0z" fill="#B5B5B5" p-id="2584"></path></svg>