<?xml version="1.0" standalone="no"?><!DOCTYPE svg PUBLIC "-//W3C//DTD SVG 1.1//EN" "http://www.w3.org/Graphics/SVG/1.1/DTD/svg11.dtd"><svg t="1688730988479" class="icon" viewBox="0 0 1024 1024" version="1.1" xmlns="http://www.w3.org/2000/svg" p-id="8258" xmlns:xlink="http://www.w3.org/1999/xlink" width="128" height="128"><path d="M832 768V192a128 128 0 0 0-128-128H192A160.128 160.128 0 0 0 35.2 192H32v64H192v576c0 59.584 40.896 109.184 96 123.52V960c5.504 0 10.688-1.088 16-1.6 5.312 0.64 10.56 1.6 16 1.6h544v-3.264A160 160 0 0 0 988.736 832h3.264v-64H832zM101.888 192c13.184-37.184 48.384-64 90.112-64v64H101.888zM256 832V128h448a64 64 0 0 1 64 64v576H384v32a96 96 0 0 1-75.456 93.696A63.104 63.104 0 0 1 256 832z m576 64H415.296c14.144-18.688 24.64-40.192 29.504-64h477.312c-13.248 37.184-48.384 64-90.112 64z" fill="#515151" p-id="8259"></path><path d="M676.544 516.288h-128V461.44h127.424a36.672 36.672 0 0 0 36.608-36.544 36.672 36.672 0 0 0-36.608-36.608H563.712l120.512-120.448a36.672 36.672 0 0 0 0-51.712 36.672 36.672 0 0 0-51.712 0L512 336.576 391.488 216.128a36.672 36.672 0 0 0-51.712 0 36.672 36.672 0 0 0 0 51.712l120.512 120.448H347.52a36.672 36.672 0 0 0-36.608 36.608c0 20.096 16.448 36.544 36.608 36.544h128v54.848H348.032a36.672 36.672 0 0 0-36.608 36.608c0 20.096 16.448 36.544 36.608 36.544h127.36v91.456c0 20.096 16.512 36.544 36.608 36.544a36.672 36.672 0 0 0 36.544-36.544V589.44h128a36.672 36.672 0 0 0 36.608-36.544 36.672 36.672 0 0 0-36.608-36.608z" fill="#515151" p-id="8260"></path></svg>