<?xml version="1.0" standalone="no"?><!DOCTYPE svg PUBLIC "-//W3C//DTD SVG 1.1//EN" "http://www.w3.org/Graphics/SVG/1.1/DTD/svg11.dtd"><svg t="1689454438533" class="icon" viewBox="0 0 1024 1024" version="1.1" xmlns="http://www.w3.org/2000/svg" p-id="2415" xmlns:xlink="http://www.w3.org/1999/xlink" width="128" height="128"><path d="M396.997654 0.018432A393.823311 393.823311 0 0 0 0 390.616201a393.823311 393.823311 0 0 0 396.997654 390.597769 400.939983 400.939983 0 0 0 147.965337-28.057095l249.339512 245.345984a89.239994 89.239994 0 0 0 124.772154 0l79.102576-77.822599a85.809655 85.809655 0 0 0 0-122.877788l-19.250854-18.943659 12.902168-12.697372a85.809655 85.809655 0 0 0 0-122.877788l-62.360477-61.438894a89.035197 89.035197 0 0 0-124.720955 0l-12.902168 12.697371-36.453744-35.839355a383.993088 383.993088 0 0 0 38.706503-168.393769A393.823311 393.823311 0 0 0 396.997654 0.018432m0 87.038433a310.317614 310.317614 0 0 1 261.1153 141.872646 299.924201 299.924201 0 0 1 17.714881 292.858729l-26.930715 55.448602 44.133605 43.416818 36.453744 35.839355 62.411677 61.438894 62.360477-61.438894 12.902168-12.697371 62.360478 61.438894-12.902168 12.697371-62.360478 61.438894 62.360478 61.438894 19.250853 18.943659-79.153775 77.208211-249.390711-245.345984-40.959263-40.54967-54.373421 21.606011a313.440758 313.440758 0 0 1-287.841219-30.719447 302.842549 302.842549 0 0 1-135.933553-251.336276A306.631281 306.631281 0 0 1 396.997654 87.056865" fill="#515151" p-id="2416"></path><path d="M396.485663 478.627417a87.499225 87.499225 0 1 0-87.499225-87.499225 87.499225 87.499225 0 0 0 87.499225 87.499225z m0 87.499225a174.99845 174.99845 0 1 1 174.99845-174.99845 174.99845 174.99845 0 0 1-174.99845 174.99845z" fill="#515151" p-id="2417"></path></svg>